<svg width="501" height="651" viewBox="0 0 501 651" fill="none" xmlns="http://www.w3.org/2000/svg">
<g clip-path="url(#clip0_1_10)">
<path d="M55.7866 557.203V644.699C55.7866 645.419 55.4267 646.139 54.5269 646.319C46.6088 649.38 38.1509 650.82 29.153 650.82C20.1552 650.82 13.1369 648.48 7.9181 643.799C2.69935 639.118 0 632.096 0 622.555V607.972C0 599.33 2.69935 592.489 7.9181 587.628C13.1369 582.767 19.9752 580.247 28.4332 580.247C30.5927 580.247 32.9321 580.427 35.0916 580.787C40.3103 581.687 44.9892 577.907 44.9892 572.686V557.023C44.9892 556.122 45.5291 555.582 46.6088 555.582H54.347C55.2468 555.942 55.7866 556.303 55.7866 557.203ZM44.9892 633.537V599.51C44.9892 596.09 42.8297 593.029 39.7705 591.769C36.5313 590.509 33.1121 589.969 29.5129 589.969C17.2759 589.969 10.9774 596.09 10.9774 608.152V622.735C10.9774 629.396 12.597 634.257 15.6563 637.137C18.7155 640.198 23.3944 641.638 29.5129 641.638H37.0711C41.3901 641.638 44.9892 638.038 44.9892 633.537Z" fill="#F90306"/>
<path d="M128.849 606.532V625.435C128.849 633.177 126.33 639.478 121.111 644.159C115.892 648.84 108.874 651.18 100.056 651.18C91.2382 651.18 84.2198 648.84 79.0011 644.159C73.7823 639.478 71.2629 633.177 71.2629 625.615V606.712C71.2629 598.97 73.9623 592.669 79.181 587.808C84.3998 582.947 91.4181 580.607 100.056 580.607C108.874 580.607 115.892 582.947 121.111 587.808C126.33 592.309 128.849 598.61 128.849 606.532ZM118.052 625.255V606.352C118.052 601.311 116.432 597.35 113.373 594.29C110.134 591.409 105.815 589.969 100.056 589.969C94.2974 589.969 89.7985 591.409 86.7392 594.29C83.68 597.17 82.0604 601.311 82.0604 606.352V625.255C82.0604 630.296 83.68 634.257 86.7392 637.137C89.7985 640.018 94.2974 641.458 100.056 641.458C105.815 641.458 110.314 640.018 113.373 637.137C116.612 634.257 118.052 630.296 118.052 625.255Z" fill="#F90306"/>
<path d="M156.742 649.56H148.824C147.745 649.56 147.205 649.02 147.205 648.119V558.283C147.205 557.383 148.644 555.762 149.724 555.762H158.002C158.722 555.762 159.442 556.122 159.802 556.843L194.533 613.553C200.472 623.635 204.071 629.936 205.511 632.637L205.871 632.457C205.331 621.475 205.151 609.772 205.151 596.99V558.463C205.151 557.023 206.411 555.762 207.85 555.762H213.429C214.869 555.762 216.128 557.023 216.128 558.463V646.859C216.128 648.299 214.869 649.56 213.429 649.56H205.511C204.611 649.56 204.071 649.2 203.711 648.66L169.159 593.929C164.841 586.908 161.061 580.247 157.822 573.946L157.642 574.126C158.182 587.988 158.362 599.33 158.362 608.332V648.119C158.182 649.02 157.642 649.56 156.742 649.56Z" fill="black"/>
<path d="M235.744 587.088C242.402 582.587 250.68 580.247 260.578 580.247C268.856 580.247 275.154 582.407 279.833 586.728C284.332 591.049 286.671 597.35 286.671 605.632V644.879C286.671 645.779 286.311 646.319 285.412 646.499C277.674 649.38 269.216 650.64 260.038 650.64C251.94 650.64 245.101 648.84 239.883 645.419C234.484 641.998 231.964 636.417 231.964 629.216C231.964 622.555 234.484 617.334 239.523 613.733C244.561 610.132 251.4 608.332 260.038 608.332C263.457 608.332 267.416 608.692 271.735 609.232C273.894 609.592 275.874 607.792 275.874 605.632C275.874 600.231 274.614 596.27 272.275 593.569C269.755 590.869 265.796 589.609 260.218 589.609C253.199 589.609 247.081 591.229 241.682 594.47C240.962 595.01 240.242 594.83 239.703 594.109L235.924 588.528C235.204 588.168 235.204 587.628 235.744 587.088ZM242.582 629.576C242.582 633.357 244.202 636.417 247.441 638.398C250.68 640.378 254.819 641.458 260.038 641.458C264.357 641.458 268.676 640.918 272.995 639.838C274.614 639.478 275.874 638.038 275.874 636.417V622.555C275.874 620.754 274.614 619.314 272.815 618.954C268.316 618.234 264.177 617.874 260.218 617.874C248.52 617.874 242.582 621.835 242.582 629.576Z" fill="black"/>
<path d="M314.025 627.236C314.025 631.556 315.105 634.977 317.264 637.317C319.424 639.658 322.483 640.918 326.622 640.918C327.702 640.918 329.681 640.918 332.92 640.738C334 640.738 334.54 641.278 334.54 642.178V649.2C334.54 650.1 334.18 650.64 333.28 650.82C330.221 651 327.702 651 326.262 651C319.424 651 313.845 649.02 309.706 645.239C305.567 641.458 303.407 635.517 303.407 627.776V570.885C303.407 567.645 305.927 565.124 309.166 565.124H311.865C312.585 565.124 313.125 565.664 313.305 566.564L314.025 578.447C314.205 580.607 316.004 582.407 318.164 582.407H327.162C330.221 582.407 332.74 584.928 332.74 587.988V590.329C332.74 591.409 332.2 591.949 331.301 591.949H318.524C316.184 591.949 314.385 593.749 314.385 596.09V627.236H314.025Z" fill="black"/>
<path d="M357.754 562.784C357.754 564.584 357.214 566.204 355.955 567.285C354.695 568.545 353.255 569.085 351.456 569.085C349.656 569.085 348.037 568.545 346.777 567.285C345.517 566.024 344.797 564.584 344.797 562.784C344.797 560.983 345.517 559.363 346.777 558.283C348.037 557.023 349.656 556.483 351.456 556.483C353.255 556.483 354.875 557.023 355.955 558.283C357.034 559.363 357.754 560.803 357.754 562.784ZM347.317 649.56C346.237 649.56 345.697 649.02 345.697 648.119V591.049C345.697 585.828 349.836 581.687 355.055 581.687C355.955 581.687 356.495 582.227 356.495 583.308V640.378C356.495 645.419 352.356 649.56 347.317 649.56Z" fill="black"/>
<path d="M421.999 587.628C416.78 582.767 409.762 580.427 400.944 580.427C392.126 580.427 385.288 582.767 380.069 587.628C374.85 592.489 372.151 598.79 372.151 606.532V625.435C372.151 633.177 374.67 639.298 379.889 643.979C385.108 648.66 392.126 651 400.944 651C409.762 651 416.78 648.66 421.999 643.979C427.218 639.298 429.737 632.997 429.737 625.255V606.352C429.737 598.61 427.218 592.309 421.999 587.628Z" fill="#FA0305"/>
<path d="M454.391 649.56C449.352 649.56 445.213 645.419 445.213 640.378V587.268C445.213 586.368 445.573 585.828 446.293 585.468C454.391 582.047 462.849 580.427 471.487 580.427C480.665 580.427 487.863 582.767 493.082 587.448C498.301 592.129 501 599.15 501 608.872V648.119C501 649.02 500.46 649.56 499.38 649.56C494.342 649.56 490.203 645.419 490.203 640.378V608.872C490.203 596.27 483.904 589.969 471.487 589.969C468.428 589.969 465.369 590.149 462.309 590.689C458.71 591.409 456.011 594.65 456.011 598.25V648.119C456.011 649.02 455.471 649.56 454.391 649.56Z" fill="black"/>
<path d="M495.961 199.837C488.583 165.45 473.827 132.684 452.232 104.959C424.878 69.4928 384.748 41.4076 339.939 38.8872C299.628 36.5467 259.678 55.9903 232.144 85.5158C221.707 96.8578 215.948 122.963 239.163 122.603C246.361 122.603 253.019 119.182 259.678 116.301C292.61 102.799 332.02 106.22 362.253 125.123C334.36 122.603 306.107 125.663 279.113 133.045C273.714 134.485 268.136 136.285 263.997 140.246C260.038 144.207 258.238 151.048 261.657 155.549C265.616 160.77 273.355 160.23 279.653 159.149C296.569 156.449 313.665 154.288 330.581 156.809C356.315 160.59 379.349 175.352 399.684 191.735C427.578 214.239 452.412 241.425 467.888 273.83C470.407 278.871 472.567 284.272 476.706 288.233C480.845 292.194 487.503 293.994 492.182 291.114C496.861 288.233 498.121 282.112 498.841 276.531C502.62 250.966 501.18 224.861 495.961 199.837Z" fill="url(#paint0_linear_1_10)"/>
<path d="M5.39871 301.376C17.4558 359.166 49.4882 412.456 101.496 443.422C120.571 454.764 141.986 462.865 164.121 463.585C188.415 464.306 212.169 455.664 233.404 443.782C246.001 436.58 258.058 427.939 267.956 417.317C272.455 412.456 276.594 407.055 278.213 400.754C279.833 394.453 278.573 386.891 273.714 382.571C269.396 378.79 262.917 378.07 257.158 379.15C251.4 380.23 246.181 382.751 240.782 385.091C207.85 398.413 168.8 394.813 138.747 376.089C166.64 378.61 194.713 375.549 221.707 368.168C227.286 366.728 232.864 364.927 236.823 360.786C240.782 356.646 242.402 349.624 238.803 345.304C234.844 340.623 227.645 340.983 221.527 341.883C206.231 344.223 190.574 346.384 175.098 344.944C141.086 341.523 111.573 320.279 86.5593 296.875C64.6045 276.351 44.4494 253.307 31.6724 226.122C29.6929 221.981 27.8933 217.66 24.8341 214.059C21.7748 210.639 17.2759 207.938 12.7769 208.658C4.13901 209.919 1.07975 220.721 0.359919 229.542C-1.07974 253.487 0.539876 277.791 5.39871 301.376Z" fill="url(#paint1_linear_1_10)"/>
<path d="M199.752 5.22096C164.661 12.6023 131.369 27.9051 103.295 50.2293C79.7209 68.7727 59.5657 92.357 48.0485 120.082C26.4537 172.292 43.9095 229.902 84.0399 267.889C88.3588 271.85 92.8578 275.811 98.4364 277.791C104.015 279.772 110.494 279.772 115.172 276.351C120.931 272.21 122.731 264.469 121.831 257.447C120.931 250.426 117.692 244.125 115.172 237.464C102.755 205.418 106.714 167.611 125.07 138.626C122.371 166.351 125.61 194.616 132.808 221.621C134.248 227.022 136.047 232.783 140.006 236.744C143.966 240.704 150.804 242.505 155.303 239.084C160.522 235.123 159.982 227.382 158.902 220.901C156.203 203.798 154.043 186.514 156.742 169.411C160.702 143.306 175.638 120.082 192.374 99.7384C215.228 72.0133 242.582 47.3487 274.794 31.8659C279.293 29.7055 283.972 27.7251 287.571 24.1244C291.17 20.5238 293.33 15.1228 291.53 10.4419C289.191 4.14076 281.453 2.34043 274.794 1.44026C250.14 -1.44027 224.586 -4.01281e-06 199.752 5.22096Z" fill="url(#paint2_linear_1_10)"/>
<path d="M301.428 495.811C329.501 489.87 356.315 478.888 380.609 463.405C402.924 449.183 423.079 431.179 438.015 409.215C452.772 387.251 462.129 361.327 462.669 334.862C463.209 297.235 445.573 260.508 418.4 234.403C413.541 229.722 408.142 225.222 401.844 223.241C395.545 221.261 387.627 222.161 383.128 227.022C379.169 231.343 378.269 237.824 379.349 243.765C380.429 249.526 383.128 254.927 385.288 260.508C398.605 293.454 395.005 332.521 376.29 362.587C378.989 334.682 375.75 306.597 368.372 279.592C366.932 274.191 365.133 268.609 361.174 264.469C357.214 260.508 350.376 258.708 345.877 262.128C340.658 266.089 341.198 273.83 342.278 280.132C344.797 297.055 347.137 314.158 344.617 331.081C340.838 356.826 326.262 379.87 309.886 400.034C287.391 427.759 260.398 452.783 228.185 468.086C223.686 470.247 218.828 472.407 215.049 475.648C201.192 487.71 213.789 498.512 227.286 499.952C251.76 502.653 276.954 501.212 301.428 495.811Z" fill="url(#paint3_linear_1_10)"/>
<path d="M250.5 279.952C266.303 279.952 279.113 267.136 279.113 251.326C279.113 235.517 266.303 222.701 250.5 222.701C234.697 222.701 221.887 235.517 221.887 251.326C221.887 267.136 234.697 279.952 250.5 279.952Z" fill="url(#paint4_linear_1_10)"/>
</g>
<defs>
<linearGradient id="paint0_linear_1_10" x1="223.169" y1="165.477" x2="501.087" y2="165.477" gradientUnits="userSpaceOnUse">
<stop stop-color="#9E005D"/>
<stop offset="1" stop-color="#FF0000"/>
</linearGradient>
<linearGradient id="paint1_linear_1_10" x1="5.5445e-06" y1="336.123" x2="278.896" y2="336.123" gradientUnits="userSpaceOnUse">
<stop stop-color="#9E005D"/>
<stop offset="1" stop-color="#FF0000"/>
</linearGradient>
<linearGradient id="paint2_linear_1_10" x1="38.784" y1="139.612" x2="292.615" y2="139.612" gradientUnits="userSpaceOnUse">
<stop stop-color="#9E005D"/>
<stop offset="1" stop-color="#FF0000"/>
</linearGradient>
<linearGradient id="paint3_linear_1_10" x1="208.736" y1="361.807" x2="462.51" y2="361.807" gradientUnits="userSpaceOnUse">
<stop stop-color="#9E005D"/>
<stop offset="1" stop-color="#FF0000"/>
</linearGradient>
<linearGradient id="paint4_linear_1_10" x1="221.839" y1="251.351" x2="279.112" y2="251.351" gradientUnits="userSpaceOnUse">
<stop stop-color="#9E005D"/>
<stop offset="1" stop-color="#FF0000"/>
</linearGradient>
<clipPath id="clip0_1_10">
<rect width="501" height="651" fill="white"/>
</clipPath>
</defs>
</svg>
