<svg xmlns="http://www.w3.org/2000/svg" xmlns:xlink="http://www.w3.org/1999/xlink" version="1.1" xml:space="preserve" viewBox="59.81 252.59 520.38 134.82">
<desc>Created with Fabric.js 5.3.0</desc>
<defs>
</defs>
<g transform="matrix(1 0 0 1 338.7100059451 319.985)" id="wF9DbpgfuYw-2KozxYe8A">
<path style="stroke: none; stroke-width: 1; stroke-dasharray: none; stroke-linecap: butt; stroke-dashoffset: 0; stroke-linejoin: miter; stroke-miterlimit: 4; fill: rgb(53,53,53); fill-rule: nonzero; opacity: 1;" vector-effect="non-scaling-stroke" transform=" translate(-278.9, -67.395)" d="M 294.15 38.15 C 292.29999999999995 29.509999999999998 287.87 24.83 278.46 24.83 C 264.23999999999995 24.83 258.7 36.53 258.52 61.91 C 263.87 53.449999999999996 274.76 48.41 287.13 48.41 C 310.58 48.41 327.2 63.349999999999994 327.2 90.69999999999999 C 327.2 116.78999999999999 310.2 134.79 281.2 134.79 C 240.57 134.79 230.6 106.72 230.6 67.47999999999999 C 230.63 22.5 245 0 279.93 0 C 308.93 0 321.85 18.72 323.51 38.15 Z M 261.15 90.34 C 261.15 101.86 267.97999999999996 108.7 279.97999999999996 108.7 C 290.68999999999994 108.7 297.52 102.04 297.52 90.88 C 297.52 79.88 291.43 72.69999999999999 279.60999999999996 72.69999999999999 C 269.59 72.7 261.1 78.46 261.1 90.34 Z" stroke-linecap="round"/>
</g>
<g transform="matrix(1 0 0 1 433.9450059451 319.985)" id="3i4rK7kFvpoY0rApvU1j5">
<path style="stroke: none; stroke-width: 1; stroke-dasharray: none; stroke-linecap: butt; stroke-dashoffset: 0; stroke-linejoin: miter; stroke-miterlimit: 4; fill: rgb(53,53,53); fill-rule: nonzero; opacity: 1;" vector-effect="non-scaling-stroke" transform=" translate(-374.135, -67.395)" d="M 366.84 29.36 L 348.56 29.36 L 348.56 0 L 399.71 0 L 399.71 134.79 L 366.84 134.79 Z" stroke-linecap="round"/>
</g>
<g transform="matrix(1 0 0 1 245.2100059451 319.985)" id="rmQddmz5g2FlquNOxugXI">
<linearGradient id="SVGID_2520" gradientUnits="userSpaceOnUse" gradientTransform="matrix(1 0 0 1 159.8 0)" x1="10.422148395736059" y1="40.293172561629106" x2="92.95162320816905" y2="40.97913183279748">
<stop offset="0%" style="stop-color:#F21919;stop-opacity: 1"/>
<stop offset="88.35222987462357%" style="stop-color:#9E005D;stop-opacity: 1"/>
<stop offset="100%" style="stop-color:#9E005D;stop-opacity: 1"/>
</linearGradient>
<path style="stroke: rgb(247,47,58); stroke-width: 0; stroke-dasharray: none; stroke-linecap: butt; stroke-dashoffset: 0; stroke-linejoin: miter; stroke-miterlimit: 4; fill: url(#SVGID_2520); fill-rule: nonzero; opacity: 1;" vector-effect="non-scaling-stroke" transform=" translate(-185.4, -67.395)" d="M 178.08 29.36 L 159.8 29.36 L 159.8 0 L 211 0 L 211 134.79 L 178.08 134.79 Z" stroke-linecap="round"/>
</g>
<g transform="matrix(1 0 0 1 530.3400059451 319.985)" id="d0kEanKASF8P_6WNNjHYi">
<path style="stroke: none; stroke-width: 1; stroke-dasharray: none; stroke-linecap: butt; stroke-dashoffset: 0; stroke-linejoin: miter; stroke-miterlimit: 4; fill: rgb(53,53,53); fill-rule: nonzero; opacity: 1;" vector-effect="non-scaling-stroke" transform=" translate(-470.53, -67.395)" d="M 423.82 34.81 C 423.82 16.34 438.77 0 470.53 0 C 502.28999999999996 0 517.06 16.34 517.06 34.81 C 517.06 48.13 509.85999999999996 57.540000000000006 499.69999999999993 62.69 C 512.81 68.69 520.3799999999999 79.56 520.3799999999999 94.3 C 520.3799999999999 120.22999999999999 498.0399999999999 134.79 470.52999999999986 134.79 C 443.0199999999998 134.79 420.67999999999984 120.22999999999999 420.67999999999984 94.29999999999998 C 420.67999999999984 79.55999999999999 428.24999999999983 68.54999999999998 441.16999999999985 62.68999999999998 C 430.83 57.36 423.82 48.48 423.82 34.81 Z M 451.14 92.88 C 451.14 102.64999999999999 458.34 109.92999999999999 470.53 109.92999999999999 C 482.53 109.92999999999999 489.53 102.47 489.53 92.88 C 489.53 82.22 481.77 75.88 470.53 75.88 C 459.28999999999996 75.88 451.14 81.87 451.14 92.88 Z M 486.40999999999997 39.419999999999995 C 486.40999999999997 29.659999999999997 479.95 24.149999999999995 470.53 24.149999999999995 C 461.10999999999996 24.149999999999995 454.65 29.659999999999997 454.65 39.599999999999994 C 454.65 49.00999999999999 461.47999999999996 54.519999999999996 470.53 54.519999999999996 C 479.58 54.519999999999996 486.41 48.84 486.41 39.42 Z" stroke-linecap="round"/>
</g>
<g transform="matrix(1 0 0 1 270.7700059451 319.98)" id="9TzPJ2mUUkqqdm1BCLSYd">
<path style="stroke: none; stroke-width: 1; stroke-dasharray: none; stroke-linecap: butt; stroke-dashoffset: 0; stroke-linejoin: miter; stroke-miterlimit: 4; fill: rgb(53,53,53); fill-rule: nonzero; opacity: 1;" vector-effect="non-scaling-stroke" transform=" translate(-9.84, -9.84)" d="M 0 19.68 L 0 0 L 19.68 0 L 19.68 19.68 z" stroke-linecap="round"/>
</g>
<g transform="matrix(1 0 0 1 127.1850045569 319.985)" id="KJr_ZRNTryjeRLvdGOA9q">
<linearGradient id="SVGID_2409" gradientUnits="userSpaceOnUse" gradientTransform="matrix(1 0 0 1 -0.0000118901 0)" x1="0" y1="67.39500000000054" x2="320.1900059450684" y2="67.41000000000052">
<stop offset="0%" style="stop-color:#9E005D;stop-opacity: 1"/>
<stop offset="49.02673239844367%" style="stop-color:#F21919;stop-opacity: 1"/>
<stop offset="100%" style="stop-color:#000000;stop-opacity: 1"/>
</linearGradient>
<path style="stroke: none; stroke-width: 1; stroke-dasharray: none; stroke-linecap: butt; stroke-dashoffset: 0; stroke-linejoin: miter; stroke-miterlimit: 4; fill: url(#SVGID_2409); fill-rule: nonzero; opacity: 1;" vector-effect="non-scaling-stroke" transform=" translate(-67.3749986118, -67.395)" d="M 67.38 0 C 49.50278031384563 -0.0000031501264496622784 32.35834901303414 7.104431338430958 19.72099736978508 19.749285119788226 C 7.0836457265360195 32.394138901145496 -0.010612775118218565 49.542783463971844 0 67.42000000000002 L 0 134.79000000000002 L 92.1 134.79000000000002 C 69.25134779517374 134.2243698734685 51.13372932792863 115.33941092286362 51.51582540389154 92.4869526829743 C 51.89792147985445 69.63449444308499 70.63675419914267 51.36578015309661 93.4915442425332 51.56431752914733 C 116.3463342859237 51.762854905198054 134.76496586832315 70.35435253509677 134.75 93.20999999999998 L 134.75 0 Z" stroke-linecap="round"/>
</g>
<g transform="matrix(1 0 0 1 174.2550059451 366.605)" id="Sliq_UPFcFHSXfRquAVrH">
<linearGradient id="SVGID_2494" gradientUnits="userSpaceOnUse" gradientTransform="matrix(1 0 0 1 94.19 93.21)" x1="-21.26473740621651" y1="4.3419774919614085" x2="139.28813504823145" y2="21.490959271168258">
<stop offset="0%" style="stop-color:#9E005D;stop-opacity: 1"/>
<stop offset="50%" style="stop-color:#F21919;stop-opacity: 1"/>
<stop offset="100%" style="stop-color:#000000;stop-opacity: 1"/>
</linearGradient>
<path style="stroke: none; stroke-width: 1; stroke-dasharray: none; stroke-linecap: butt; stroke-dashoffset: 0; stroke-linejoin: miter; stroke-miterlimit: 4; fill: url(#SVGID_2494); fill-rule: nonzero; opacity: 1;" vector-effect="non-scaling-stroke" transform=" translate(-114.445, -114.015)" d="M 131.53 109.29 C 127.4036431725659 103.84524965421681 120.26193743435046 101.64258773482214 113.78559033601407 103.81722684444192 C 107.30924323767768 105.9918659540617 102.94414931774578 112.05830110599273 102.94 118.89000000000001 C 102.94694992818604 123.87033067004387 105.2812775257464 128.56118232409543 109.25 131.57 C 106.96906229823553 132.53063387971056 104.60616573886854 133.2836816500471 102.19 133.82 C 99.56194559576825 134.4112517918532 96.88273009440385 134.74615372952374 94.19 134.82 L 134.7 134.82 L 134.7 93.21 C 134.69332643528577 96.23734757941907 134.35802891771226 99.2550252375807 133.7 102.21 C 133.1908606362737 104.63040590671179 132.46458883829715 106.9999931554095 131.53 109.29 Z" stroke-linecap="round"/>
</g>
<g transform="matrix(1 0 0 1 173.3100027585 366.1449933001)" id="qG6XVLcHIdS-gb9WpID0I">
<path style="stroke: none; stroke-width: 1; stroke-dasharray: none; stroke-linecap: butt; stroke-dashoffset: 0; stroke-linejoin: miter; stroke-miterlimit: 4; fill: rgb(53,53,53); fill-rule: nonzero; opacity: 1;" vector-effect="non-scaling-stroke" transform=" translate(-113.4999968134, -113.5549933001)" d="M 118.84 103 C 114.62132462925933 102.99999916564302 110.57558121028678 104.67654556974958 107.59346516775386 107.66053715696333 C 104.61134912522095 110.64452874417708 102.93734674504977 114.69132546361624 102.94 118.91 C 102.93840574976811 120.68052185964802 103.23592520426867 122.43859136351497 103.82 124.11 C 111.93399513702178 118.88951557017485 118.83550632644979 111.99141421829103 124.05999999999999 103.88 C 122.38187095691522 103.29519365768773 120.61710725247717 102.99768560023458 118.84 103 Z" stroke-linecap="round"/>
</g>
</svg>